<svg width="22" height="18" viewBox="0 0 22 18" fill="none" xmlns="http://www.w3.org/2000/svg">
<path d="M9.70091 0.612407L0.736065 8.39132C0.654944 8.46163 0.589886 8.54856 0.545299 8.64622C0.500711 8.74388 0.477635 8.84998 0.477635 8.95733C0.477635 9.06468 0.500711 9.17078 0.545299 9.26844C0.589886 9.3661 0.654944 9.45303 0.736065 9.52335L9.70091 17.2999C9.72793 17.3234 9.76114 17.3386 9.79657 17.3438C9.83201 17.349 9.86818 17.3438 9.90078 17.329C9.93338 17.3142 9.96104 17.2903 9.98045 17.2602C9.99987 17.2301 10.0102 17.1951 10.0103 17.1593L10.0103 15.2608C10.0103 15.153 9.96341 15.0499 9.88138 14.9773L3.9681 9.84678L21.8125 9.84678C21.9156 9.84678 22 9.76241 22 9.65928L22 8.25303C22 8.14991 21.9156 8.06553 21.8125 8.06553L3.9681 8.06553L9.88138 2.93506C9.96341 2.86475 10.0103 2.76163 10.0103 2.65147L10.0103 0.753032C10.0103 0.593658 9.82278 0.506939 9.70091 0.612407Z" fill="#D33639"/>
</svg>
