<svg width="22" height="18" viewBox="0 0 22 18" fill="none" xmlns="http://www.w3.org/2000/svg">
<path d="M12.2991 17.3876L21.2639 9.60868C21.3451 9.53837 21.4101 9.45144 21.4547 9.35378C21.4993 9.25612 21.5224 9.15002 21.5224 9.04267C21.5224 8.93532 21.4993 8.82922 21.4547 8.73156C21.4101 8.6339 21.3451 8.54697 21.2639 8.47665L12.2991 0.700091C12.2721 0.676592 12.2389 0.661355 12.2034 0.656196C12.168 0.651036 12.1318 0.656172 12.0992 0.67099C12.0666 0.685809 12.039 0.709686 12.0195 0.739777C12.0001 0.769868 11.9898 0.804906 11.9897 0.840716L11.9897 2.73915C11.9897 2.84697 12.0366 2.95009 12.1186 3.02275L18.0319 8.15322L0.1875 8.15322C0.0843751 8.15322 -3.31476e-07 8.23759 -3.35984e-07 8.34072L-3.97453e-07 9.74697C-4.01961e-07 9.85009 0.084375 9.93447 0.1875 9.93447L18.0319 9.93447L12.1186 15.0649C12.0366 15.1352 11.9897 15.2384 11.9897 15.3485L11.9897 17.247C11.9897 17.4063 12.1772 17.4931 12.2991 17.3876Z" fill="#D33639"/>
</svg>
